<?xml version="1.0" encoding="iso-8859-1"?>
<!-- Generator: Adobe Illustrator 19.0.0, SVG Export Plug-In . SVG Version: 6.00 Build 0)  -->
<svg version="1.1" id="Capa_1" xmlns="http://www.w3.org/2000/svg" xmlns:xlink="http://www.w3.org/1999/xlink" x="0px" y="0px"
	 viewBox="0 0 480 480" style="enable-background:new 0 0 480 480;" xml:space="preserve">
<path style="fill:#ffffff" d="M240,8C111.87,8,8,111.87,8,240s103.87,232,232,232s232-103.87,232-232S368.13,8,240,8z M240,312
	L104.232,176.232L240,312l135.768-135.768L240,312z"/>
<g>
	<path style="fill:#b3b3cc;" d="M240,480C107.452,480,0,372.548,0,240S107.452,0,240,0s240,107.452,240,240
		C479.85,372.486,372.486,479.85,240,480z M240,16C116.288,16,16,116.288,16,240s100.288,224,224,224s224-100.288,224-224
		C463.859,116.347,363.653,16.141,240,16z"/>
	<path style="fill:#b3b3cc;" d="M240,320c-2.122,0-4.156-0.844-5.656-2.344L98.576,181.888c-3.069-3.178-2.981-8.243,0.197-11.312
		c3.1-2.994,8.015-2.994,11.115,0L240,300.688l130.112-130.112c3.069-3.178,8.134-3.266,11.312-0.196
		c3.178,3.069,3.266,8.134,0.196,11.312c-0.064,0.067-0.13,0.132-0.196,0.196L245.656,317.656C244.156,319.156,242.122,320,240,320z
		"/>
</g>
<g>
</g>
<g>
</g>
<g>
</g>
<g>
</g>
<g>
</g>
<g>
</g>
<g>
</g>
<g>
</g>
<g>
</g>
<g>
</g>
<g>
</g>
<g>
</g>
<g>
</g>
<g>
</g>
<g>
</g>
</svg>
